<?xml version="1.0" standalone="no"?><svg xmlns="http://www.w3.org/2000/svg" viewBox="0 0 1440 320"><path fill="#6C63FF" fill-opacity="0.5" d="M0,320L24,304C48,288,96,256,144,250.7C192,245,240,267,288,256C336,245,384,203,432,197.3C480,192,528,224,576,202.7C624,181,672,107,720,85.3C768,64,816,96,864,117.3C912,139,960,149,1008,138.7C1056,128,1104,96,1152,80C1200,64,1248,64,1296,69.3C1344,75,1392,85,1416,90.7L1440,96L1440,320L1416,320C1392,320,1344,320,1296,320C1248,320,1200,320,1152,320C1104,320,1056,320,1008,320C960,320,912,320,864,320C816,320,768,320,720,320C672,320,624,320,576,320C528,320,480,320,432,320C384,320,336,320,288,320C240,320,192,320,144,320C96,320,48,320,24,320L0,320Z"></path></svg>