<?xml version="1.0" standalone="no"?><svg xmlns="http://www.w3.org/2000/svg" viewBox="0 0 1440 320"><path fill="#6C63FF" fill-opacity="0.5" d="M0,32L26.7,48C53.3,64,107,96,160,106.7C213.3,117,267,107,320,112C373.3,117,427,139,480,160C533.3,181,587,203,640,218.7C693.3,235,747,245,800,245.3C853.3,245,907,235,960,224C1013.3,213,1067,203,1120,202.7C1173.3,203,1227,213,1280,234.7C1333.3,256,1387,288,1413,304L1440,320L1440,0L1413.3,0C1386.7,0,1333,0,1280,0C1226.7,0,1173,0,1120,0C1066.7,0,1013,0,960,0C906.7,0,853,0,800,0C746.7,0,693,0,640,0C586.7,0,533,0,480,0C426.7,0,373,0,320,0C266.7,0,213,0,160,0C106.7,0,53,0,27,0L0,0Z"></path></svg>